HIERARCHY
ROOT Hips
{
    OFFSET 0.000000 0.000000 0.000000
    CHANNELS 6 Xposition Yposition Zposition Zrotation Xrotation Yrotation
    JOINT Spine
    {
        OFFSET 0.000000 0.079876 -0.000000
        CHANNELS 3 Zrotation Xrotation Yrotation
        JOINT Spine1
        {
            OFFSET -0.000000 0.216424 0.000000
            CHANNELS 3 Zrotation Xrotation Yrotation
            JOINT Neck
            {
                OFFSET -0.000000 0.220901 -0.000000
                CHANNELS 3 Zrotation Xrotation Yrotation
                JOINT Head
                {
                    OFFSET -0.000000 0.130646 0.017470
                    CHANNELS 3 Zrotation Xrotation Yrotation
                    End Site
                    {
                        OFFSET 0.000000 0.174695 0.000000
                    }
                }
            }
            JOINT LeftShoulder
            {
                OFFSET 0.034919 0.173753 -0.002721
                CHANNELS 3 Zrotation Xrotation Yrotation
                JOINT LeftArm
                {
                    OFFSET 0.102892 0.000000 0.000000
                    CHANNELS 3 Zrotation Xrotation Yrotation
                    JOINT LeftForeArm
                    {
                        OFFSET 0.249949 -0.000000 0.000000
                        CHANNELS 3 Zrotation Xrotation Yrotation
                        JOINT LeftHand
                        {
                            OFFSET 0.237910 0.000000 -0.000000
                            CHANNELS 3 Zrotation Xrotation Yrotation
                            JOINT LeftHandThumb1
                            {
                                OFFSET 0.018256 -0.020745 0.029043
                                CHANNELS 3 Zrotation Xrotation Yrotation
                                JOINT LeftHandThumb2
                                {
                                    OFFSET 0.027572 0.000000 0.000000
                                    CHANNELS 3 Zrotation Xrotation Yrotation
                                    JOINT LeftHandThumb3
                                    {
                                        OFFSET 0.023566 0.000000 -0.000000
                                        CHANNELS 3 Zrotation Xrotation Yrotation
                                        End Site
                                        {
                                            OFFSET 0.020585 0.000000 0.000000
                                        }
                                    }
                                }
                            }
                            JOINT LeftHandIndex1
                            {
                                OFFSET 0.074682 0.000000 0.029043
                                CHANNELS 3 Zrotation Xrotation Yrotation
                                JOINT LeftHandIndex2
                                {
                                    OFFSET 0.041490 0.000000 -0.000000
                                    CHANNELS 3 Zrotation Xrotation Yrotation
                                    JOINT LeftHandIndex3
                                    {
                                        OFFSET 0.020745 0.000000 -0.000000
                                        CHANNELS 3 Zrotation Xrotation Yrotation
                                        End Site
                                        {
                                            OFFSET 0.018120 0.000000 0.000000
                                        }
                                    }
                                }
                            }
                            JOINT LeftHandMiddle1
                            {
                                OFFSET 0.074682 -0.000000 0.009626
                                CHANNELS 3 Zrotation Xrotation Yrotation
                                JOINT LeftHandMiddle2
                                {
                                    OFFSET 0.045639 -0.000000 -0.000000
                                    CHANNELS 3 Zrotation Xrotation Yrotation
                                    JOINT LeftHandMiddle3
                                    {
                                        OFFSET 0.024894 0.000000 -0.000000
                                        CHANNELS 3 Zrotation Xrotation Yrotation
                                        End Site
                                        {
                                            OFFSET 0.021744 0.000000 0.000000
                                        }
                                    }
                                }
                            }
                            JOINT LeftHandRing1
                            {
                                OFFSET 0.070533 -0.000000 -0.009626
                                CHANNELS 3 Zrotation Xrotation Yrotation
                                JOINT LeftHandRing2
                                {
                                    OFFSET 0.041490 -0.000000 -0.000000
                                    CHANNELS 3 Zrotation Xrotation Yrotation
                                    JOINT LeftHandRing3
                                    {
                                        OFFSET 0.020745 -0.000000 0.000000
                                        CHANNELS 3 Zrotation Xrotation Yrotation
                                        End Site
                                        {
                                            OFFSET 0.018120 0.000000 0.000000
                                        }
                                    }
                                }
                            }
                            JOINT LeftHandPinky1
                            {
                                OFFSET 0.066384 -0.000000 -0.029043
                                CHANNELS 3 Zrotation Xrotation Yrotation
                                JOINT LeftHandPinky2
                                {
                                    OFFSET 0.033192 -0.000000 -0.000000
                                    CHANNELS 3 Zrotation Xrotation Yrotation
                                    JOINT LeftHandPinky3
                                    {
                                        OFFSET 0.016596 -0.000000 0.000000
                                        CHANNELS 3 Zrotation Xrotation Yrotation
                                        End Site
                                        {
                                            OFFSET 0.014496 0.000000 0.000000
                                        }
                                    }
                                }
                            }
                        }
                    }
                }
            }
            JOINT RightShoulder
            {
                OFFSET -0.034919 0.173753 -0.002721
                CHANNELS 3 Zrotation Xrotation Yrotation
                JOINT RightArm
                {
                    OFFSET -0.102892 -0.000000 0.000000
                    CHANNELS 3 Zrotation Xrotation Yrotation
                    JOINT RightForeArm
                    {
                        OFFSET -0.249949 -0.000000 0.000000
                        CHANNELS 3 Zrotation Xrotation Yrotation
                        JOINT RightHand
                        {
                            OFFSET -0.237910 -0.000000 0.000000
                            CHANNELS 3 Zrotation Xrotation Yrotation
                            JOINT RightHandThumb1
                            {
                                OFFSET -0.018256 -0.020745 0.029043
                                CHANNELS 3 Zrotation Xrotation Yrotation
                                JOINT RightHandThumb2
                                {
                                    OFFSET -0.027572 -0.000000 0.000000
                                    CHANNELS 3 Zrotation Xrotation Yrotation
                                    JOINT RightHandThumb3
                                    {
                                        OFFSET -0.023566 -0.000000 0.000000
                                        CHANNELS 3 Zrotation Xrotation Yrotation
                                        End Site
                                        {
                                            OFFSET -0.020585 0.000000 0.000000
                                        }
                                    }
                                }
                            }
                            JOINT RightHandIndex1
                            {
                                OFFSET -0.074682 -0.000000 0.029043
                                CHANNELS 3 Zrotation Xrotation Yrotation
                                JOINT RightHandIndex2
                                {
                                    OFFSET -0.041490 0.000000 -0.000000
                                    CHANNELS 3 Zrotation Xrotation Yrotation
                                    JOINT RightHandIndex3
                                    {
                                        OFFSET -0.020745 -0.000000 0.000000
                                        CHANNELS 3 Zrotation Xrotation Yrotation
                                        End Site
                                        {
                                            OFFSET -0.018120 0.000000 0.000000
                                        }
                                    }
                                }
                            }
                            JOINT RightHandMiddle1
                            {
                                OFFSET -0.074682 -0.000000 0.009626
                                CHANNELS 3 Zrotation Xrotation Yrotation
                                JOINT RightHandMiddle2
                                {
                                    OFFSET -0.045639 0.000000 -0.000000
                                    CHANNELS 3 Zrotation Xrotation Yrotation
                                    JOINT RightHandMiddle3
                                    {
                                        OFFSET -0.024894 0.000000 -0.000000
                                        CHANNELS 3 Zrotation Xrotation Yrotation
                                        End Site
                                        {
                                            OFFSET -0.021744 0.000000 0.000000
                                        }
                                    }
                                }
                            }
                            JOINT RightHandRing1
                            {
                                OFFSET -0.070533 0.000000 -0.009626
                                CHANNELS 3 Zrotation Xrotation Yrotation
                                JOINT RightHandRing2
                                {
                                    OFFSET -0.041490 0.000000 -0.000000
                                    CHANNELS 3 Zrotation Xrotation Yrotation
                                    JOINT RightHandRing3
                                    {
                                        OFFSET -0.020745 0.000000 -0.000000
                                        CHANNELS 3 Zrotation Xrotation Yrotation
                                        End Site
                                        {
                                            OFFSET -0.018120 0.000000 0.000000
                                        }
                                    }
                                }
                            }
                            JOINT RightHandPinky1
                            {
                                OFFSET -0.066384 -0.000000 -0.029043
                                CHANNELS 3 Zrotation Xrotation Yrotation
                                JOINT RightHandPinky2
                                {
                                    OFFSET -0.033192 -0.000000 -0.000000
                                    CHANNELS 3 Zrotation Xrotation Yrotation
                                    JOINT RightHandPinky3
                                    {
                                        OFFSET -0.016596 -0.000000 0.000000
                                        CHANNELS 3 Zrotation Xrotation Yrotation
                                        End Site
                                        {
                                            OFFSET -0.014496 0.000000 0.000000
                                        }
                                    }
                                }
                            }
                        }
                    }
                }
            }
        }
    }
    JOINT LeftUpLeg
    {
        OFFSET 0.087347 0.000000 0.000000
        CHANNELS 3 Zrotation Xrotation Yrotation
        JOINT LeftLeg
        {
            OFFSET 0.000000 -0.321495 0.000000
            CHANNELS 3 Zrotation Xrotation Yrotation
            JOINT LeftFoot
            {
                OFFSET 0.000000 -0.470545 0.000000
                CHANNELS 3 Zrotation Xrotation Yrotation
                JOINT LeftToeBase
                {
                    OFFSET -0.000000 -0.056776 0.131021
                    CHANNELS 3 Zrotation Xrotation Yrotation
                    End Site
                    {
                        OFFSET 0.000000 0.000000 0.034939
                    }
                }
            }
        }
    }
    JOINT RightUpLeg
    {
        OFFSET -0.087347 -0.000000 -0.000000
        CHANNELS 3 Zrotation Xrotation Yrotation
        JOINT RightLeg
        {
            OFFSET -0.000000 -0.321495 0.000000
            CHANNELS 3 Zrotation Xrotation Yrotation
            JOINT RightFoot
            {
                OFFSET -0.000000 -0.470545 0.000000
                CHANNELS 3 Zrotation Xrotation Yrotation
                JOINT RightToeBase
                {
                    OFFSET 0.000000 -0.056776 0.131021
                    CHANNELS 3 Zrotation Xrotation Yrotation
                    End Site
                    {
                        OFFSET 0.000000 0.000000 0.034939
                    }
                }
            }
        }
    }
}
MOTION
Frames:    4
Frame Time:    0.016667
-0.454349    0.760549    1.122735    -5.792432    -12.842866    -119.220581    0.939355    -8.382444    6.417264    -0.011278    9.480743    6.264243    -16.461878    15.261028    18.137329    -7.729074    -18.004162    11.109656    0.143333    5.666059    0.811090    -7.320369    -7.084408    2.487118    1.252958    4.521771    -15.505429    20.531265    0.511385    18.617662    21.923038    46.356941    -60.875645    -22.867775    -4.684812    22.867792    -0.000000    0.000000    -0.000000    -6.022226    17.906971    -15.078809    -5.729494    0.000000    -0.000004    -5.729497    0.000001    0.000009    -5.729498    -0.000001    -8.468338    -5.729491    -0.000001    0.000004    -5.729495    -0.000001    -0.000006    -5.729496    -0.000002    5.645548    -5.729496    0.000001    -0.000001    -5.729496    0.000000    -0.000001    -6.022237    -17.906977    9.433251    -5.729493    -0.000003    -0.000004    -5.729496    -0.000000    0.000004    -8.204128    -9.078918    2.240832    45.261345    -82.681549    40.685890    115.834229    17.259254    81.825554    71.683830    -22.021978    54.521832    -21.923027    46.356934    60.875641    22.867785    -4.684804    -22.867786    -0.000000    0.000000    -0.000000    6.022232    17.906979    15.078795    5.729495    0.000000    0.000000    5.729495    0.000002    0.000001    5.729492    -0.000001    8.468331    5.729496    0.000000    0.000000    5.729496    -0.000000    -0.000001    5.729494    0.000000    -5.645558    5.729496    -0.000000    -0.000001    5.729494    -0.000000    -0.000003    6.022234    -17.906977    -9.433253    5.729493    0.000002    0.000001    5.729496    0.000000    0.000000    -12.183930    -14.212196    7.190293    0.000003    32.360817    -0.000007    -3.796434    -16.429087    5.386599    0.000000    -0.741101    0.000000    -13.945641    -23.193758    1.459424    -0.000004    46.566387    0.000006    -9.619646    -22.853514    -12.904812    -0.000000    1.048224    0.000002    
-0.452369    0.761380    1.124349    -5.340862    -12.921767    -119.864578    0.931475    -8.120277    6.566118    0.253812    9.449935    6.371433    -13.164682    13.949646    17.390032    -9.827597    -17.503502    11.160192    0.644653    6.625626    0.758466    -8.475787    -4.637631    3.225415    0.619969    2.431376    -14.309508    20.149931    0.047224    18.129179    21.922543    46.359554    -60.880154    -22.867790    -4.684819    22.867788    -0.000000    0.000000    -0.000000    -6.022226    17.906977    -15.082521    -5.729499    0.000003    0.000016    -5.729496    0.000000    -0.000008    -5.729496    0.000000    -8.470196    -5.729496    0.000001    0.000006    -5.729495    -0.000000    -0.000014    -5.729495    -0.000000    5.646786    -5.729495    0.000001    0.000003    -5.729495    0.000002    0.000010    -6.022230    -17.906973    9.435722    -5.729495    -0.000000    -0.000005    -5.729497    -0.000000    -0.000001    -7.682962    -8.668217    2.023702    42.561012    -82.191315    37.546780    115.340248    13.511724    83.686256    72.960114    -20.034075    55.085972    -21.922518    46.359562    60.880119    22.867783    -4.684810    -22.867785    -0.000000    0.000000    -0.000000    6.022233    17.906979    15.082511    5.729496    -0.000000    -0.000000    5.729496    0.000000    0.000001    5.729497    0.000001    8.470189    5.729496    0.000000    0.000001    5.729494    -0.000000    -0.000002    5.729496    -0.000000    -5.646794    5.729495    -0.000000    -0.000001    5.729495    0.000000    0.000003    6.022231    -17.906981    -9.435724    5.729496    -0.000002    0.000001    5.729495    0.000002    -0.000001    -12.452497    -14.736998    6.258609    0.000004    32.009754    -0.000012    -3.425473    -16.286654    6.988422    0.000000    -0.745007    -0.000008    -13.755055    -23.904505    1.723632    0.000013    46.269039    -0.000018    -9.576717    -22.513597    -12.451398    -0.000001    0.938973    0.000002    
-0.450224    0.760847    1.124980    -5.027179    -12.658134    -120.127075    0.877742    -7.727937    6.499945    0.549571    9.708099    6.257917    -10.309550    12.734626    16.732641    -10.898371    -17.627279    11.130821    1.012006    7.495943    0.771732    -9.292676    -2.978878    3.842958    0.332381    1.392762    -13.423942    19.666380    -0.142807    17.800642    21.922247    46.360889    -60.882359    -22.867783    -4.684812    22.867783    -0.000000    0.000000    -0.000000    -6.022231    17.906977    -15.084382    -5.729495    -0.000002    -0.000003    -5.729494    -0.000000    0.000001    -5.729496    -0.000002    -8.471128    -5.729495    0.000002    0.000004    -5.729495    -0.000000    0.000001    -5.729495    -0.000002    5.647419    -5.729496    0.000001    0.000002    -5.729495    0.000001    0.000002    -6.022227    -17.906977    9.436972    -5.729499    0.000003    -0.000001    -5.729494    -0.000000    0.000005    -7.241741    -7.802078    1.893863    36.824345    -81.427330    30.901627    115.022835    10.312337    85.223328    73.206398    -19.370304    55.279961    -21.922262    46.360901    60.882389    22.867786    -4.684811    -22.867786    -0.000000    0.000000    -0.000000    6.022230    17.906979    15.084375    5.729494    0.000000    0.000000    5.729495    -0.000003    -0.000000    5.729494    -0.000001    8.471122    5.729496    0.000001    0.000001    5.729496    -0.000001    0.000000    5.729496    -0.000001    -5.647417    5.729491    -0.000001    -0.000002    5.729496    -0.000000    -0.000000    6.022230    -17.906977    -9.436969    5.729496    0.000001    -0.000000    5.729497    0.000001    0.000002    -12.443134    -15.223899    5.196110    -0.000002    32.200874    0.000004    -3.189005    -16.510448    8.327891    -0.000000    -0.702450    -0.000001    -13.354897    -24.358215    1.729760    0.000002    46.307957    -0.000012    -9.529031    -22.395895    -12.108846    -0.000001    0.861369    -0.000005    
-0.446641    0.758498    1.124386    -4.612167    -11.964578    -119.881706    0.772885    -7.110444    6.219741    0.905670    10.013813    5.923384    -6.401308    11.276231    16.056213    -12.968819    -17.568972    10.981946    2.149141    8.402775    0.515386    -10.377509    -0.678050    4.531829    -0.035015    -0.157202    -12.556775    19.006193    -0.313887    17.196091    21.921860    46.362843    -60.885658    -22.867767    -4.684809    22.867781    -0.000000    0.000000    -0.000000    -6.022234    17.906977    -15.087110    -5.729493    0.000000    -0.000005    -5.729499    -0.000001    0.000012    -5.729496    -0.000002    -8.472490    -5.729494    0.000001    -0.000005    -5.729496    -0.000001    0.000002    -5.729497    -0.000002    5.648332    -5.729495    -0.000002    -0.000002    -5.729494    0.000001    -0.000002    -6.022232    -17.906977    9.438799    -5.729496    0.000002    0.000007    -5.729496    -0.000000    -0.000004    -7.096617    -6.449760    1.637775    30.659756    -80.098015    23.433615    114.801231    7.218376    86.677017    72.772690    -19.706564    55.220459    -21.921867    46.362831    60.885674    22.867785    -4.684807    -22.867786    -0.000000    0.000000    -0.000000    6.022229    17.906982    15.087116    5.729496    -0.000003    -0.000000    5.729494    0.000003    0.000000    5.729496    0.000000    8.472494    5.729497    0.000003    -0.000000    5.729494    -0.000002    -0.000001    5.729495    0.000001    -5.648332    5.729495    0.000002    -0.000001    5.729495    0.000000    0.000002    6.022232    -17.906977    -9.438795    5.729496    -0.000002    -0.000004    5.729496    0.000001    -0.000000    -11.943543    -16.243040    3.715418    0.000001    33.534042    -0.000008    -2.877104    -17.223600    9.826776    0.000000    -0.634947    0.000000    -12.516894    -24.914228    1.402177    -0.000004    46.937195    -0.000000    -9.557578    -22.381859    -11.817140    0.000000    0.703356    -0.000004    
